/* XPM */
static char *_f8cd61de4e7457cd62e20d31cbaa915NxyeotcAHt13nK0o[] = {
/* columns rows colors chars-per-pixel */
"25 25 8 1 ",
"  c None",
". c #9FE0E9",
"X c #A0E0E9",
"o c #A0E1E9",
"O c #A8E3EA",
"+ c #AAE3EB",
"@ c #ABE3EB",
"# c #B5E6ED",
/* pixels */
".+#####################+X",
"+                       +",
"#                       #",
"#                       #",
"#                       #",
"#                       #",
"#                       #",
"#                       #",
"#                       #",
"#                       #",
"#                       #",
"#                       #",
"#                       #",
"#                       #",
"#                       #",
"#                       #",
"#                       #",
"#                       #",
"#                       #",
"#                       #",
"#                       #",
"#                       #",
"#                       #",
"+                       +",
".+#####################+X"
};
