/* XPM */
static char *cafc9ee8059d46aec69bac95275de09e3UuJMQ5JpDf7hz0D[] = {
/* columns rows colors chars-per-pixel */
"50 50 90 1 ",
"  c None",
". c #50D2DF",
"X c #51D2DF",
"o c #53D2DF",
"O c #58D3E0",
"+ c #59D3E1",
"@ c #5BD3E0",
"# c #5AD3E1",
"$ c #5BD3E1",
"% c #5AD4E1",
"& c #5BD4E1",
"* c #5CD4E1",
"= c #65D5E1",
"- c #66D5E1",
"; c #67D5E1",
": c #66D5E2",
"> c #67D5E2",
", c #68D5E1",
"< c #69D5E1",
"1 c #6AD5E1",
"2 c #6BD6E1",
"3 c #68D5E2",
"4 c #69D5E2",
"5 c #6AD6E2",
"6 c #73D6E2",
"7 c #73D7E2",
"8 c #72D6E3",
"9 c #73D6E3",
"0 c #73D7E3",
"q c #75D7E2",
"w c #74D7E3",
"e c #76D8E3",
"r c #85DAE5",
"t c #87DAE5",
"y c #87DBE6",
"u c #89DBE5",
"i c #9DDFE9",
"p c #9DE0E9",
"a c #9EE0E8",
"s c #9EE0E9",
"d c #9FE0E9",
"f c #A0E0E9",
"g c #A0E1E9",
"h c #A1E1E9",
"j c #A2E0E9",
"k c #A2E0EA",
"l c #A4E1EA",
"z c #A5E1EA",
"x c #A4E2EA",
"c c #A5E2EA",
"v c #A6E2EA",
"b c #A7E2EA",
"n c #A8E2EA",
"m c #A9E3EA",
"M c #A8E2EB",
"N c #A9E2EB",
"B c #A8E3EB",
"V c #A9E3EB",
"C c #AAE3EA",
"Z c #AAE3EB",
"A c #ABE3EB",
"S c #ABE4EB",
"D c #ACE4EB",
"F c #ADE4EB",
"G c #AFE5EC",
"H c #B0E5EC",
"J c #B1E5EC",
"K c #BEE9EF",
"L c #BFE9EF",
"P c #C1EAEF",
"I c #C2EAEF",
"U c #C2EAF0",
"Y c #C3EAF0",
"T c #C3EBF0",
"R c #C4EBF0",
"E c #CAECF2",
"W c #CCEDF2",
"Q c #CDEEF2",
"! c #CEEEF2",
"~ c #CFEEF2",
"^ c #D0EFF2",
"/ c #D9F2F5",
"( c #DAF2F5",
") c #DBF2F5",
"_ c #DFF4F6",
"` c #E0F4F6",
"' c #E1F4F6",
"] c #E9F7F9",
"[ c #EBF8F9",
"{ c #ECF8F9",
/* pixels */
"     >99999999999999999999999999999999999999>     ",
"   aTQQQQQQQQQQQQQQQQQQQQQQQQQQQQQQQQQQQQQQQQTa   ",
"  H(]{{{{{{{{{{{{{{{{{{{{{{{{{{{{{{{{{{{{{{{{](G  ",
" a([[[[[[[[[[[[[[[[[[[[[[[[[[[[[[[[[[[[[[[[[[[[(i ",
" T][[[[[[[[[[[[[[[[[[[[[[[[[[[[[[[[[[[[[[[[[[[[]P ",
"4Q{[[[[[{{{{{{{{{{{{{{{{{{{{{{{{{{{{{{{{{{[[[[[{Q>",
"9Q{[[[['PDbyE{[[[AuAbyE{[[[AuAbyE{[[[AuADP'[[[[{Q9",
"9Q{[[['b4 4+E{[[[bo  +E{[[[bo  +E{[[[bo  4b'[[[{Q9",
"9Q{[[{P4   %Q{[[[A   %Q{[[[A   %Q{[[[A    4P{[[{Q9",
"9Q{[[{D    %Q{[[[A   %Q{[[[A   %Q{[[[A     A{[[{Q9",
"9Q{[[{A    *Q{[[[A   *Q{[[[A   *Q{[[[A     A{[[{Q9",
"9Q{[[{S    %Q{[[[S   %Q{[[[S   %Q{[[[S     A{[[{Q9",
"9Q{[[{S    %Q{[[[A   %Q{[[[A   %Q{[[[A     A{[[{Q9",
"9Q{[[{S    *Q{[[[A   *Q{[[[A   *Q{[[[A     A{[[{Q9",
"9Q{[[{S    %Q{[[[A   %Q{[[[A   %Q{[[[A     A{[[{Q9",
"9Q{[[{S    *Q{[[[A   *Q{[[[A   *Q{[[[A     A{[[{Q9",
"9Q{[[{S    %Q{[[[A   %Q{[[[A   %Q{[[[A     A{[[{Qw",
"9Q{[[{S    *Q{[[[A   *Q{[[[A   *Q{[[[A     A{[[{^e",
"9Q{[[{S    *Q{[[[A   *Q{[[[A   *Q{[[[A     A{[[{Qw",
"9Q{[[{S    *Q{[[[A   *Q{[[[A   *Q{[[[A     A{[[{Q9",
"9Q{[[{S    *Q{[[[A   *Q{[[[A   *Q{[[[A     A{[[{Q9",
"9Q{[[{S    *Q{[[[A   *Q{[[[A   *Q{[[[A     A{[[{^9",
"9Q{[[{S    *Q{[[[A   *Q{[[[A   *Q{[[[A     A{[[{Qw",
"9Q{[[{S    *Q{[[[A   *Q{[[[A   *Q{[[[A     A{[[{Q9",
"9Q{[[{S    *Q{[[[A   *Q{[[[A   *Q{[[[A     A{[[{Q9",
"9Q{[[{S    *Q{[[[A   *Q{[[[A   *Q{[[[A     A{[[{Q9",
"9Q{[[{S    *Q{[[[A   *Q{[[[A   *Q{[[[A     A{[[{Q9",
"9Q{[[{S    *Q{[[[A   *Q{[[[A   *Q{[[[A     A{[[{Q9",
"9Q{[[{S    %Q{[[[A   %Q{[[[A   %Q{[[[A     A{[[{Q9",
"9Q{[[{S    +Q{[[[A   +Q{[[[A   +Q{[[[A     A{[[{Q9",
"9Q{[[{S    +Q{[[[A   +Q{[[[A   +Q{[[[A     A{[[{Q9",
"9Q{[[{S    +Q{[[[A   +Q{[[[A   +Q{[[[A     A{[{{^w",
"9Q{[[{S    +Q{[[[A   +Q{[[[A   +Q{[[[A     A{[[{Q9",
"9Q{[[{S    *Q{[[[A   *Q{[[[A   *Q{[[[A     A{[[{Q9",
"9Q{[[{S    *Q{[[[A   *Q{[[[A   *Q{[[[A     A{[[{Q9",
"9Q{[[{S    *Q{[[[A   *Q{[[[A   *Q{[[[A     A{[[[Q9",
"9Q{[[{S    *Q{[[[A   *Q{[[[A   *Q{[[[A     A{[[{Q9",
"9Q{[[{S    *Q{[[[A   *Q{[[[A   *Q{[[[A     A{[[{Q9",
"9Q{[[{S    *Q{[[[A   *Q{[[[A   *Q{[[[A     A{[[{Q9",
"9Q{[[{A    %Q{[[[A   %Q{[[[A   %Q{[[[A     A{[[{Q9",
"9Q{[[{D    +Q{[[[A   +Q{[[[A   +Q{[[[A     A{[[{Q9",
"9Q{[[{P4   +Q{[[[A   +Q{[[[A   +Q{[[[A    >L{[[{Q9",
"9Q{[[['b>  +E{[[[bo  +E{[[[bo  +E{[[[bo  >b'[[[{Q9",
"9Q{[[[['LAjyE{[[[AyAjyE{[[[AyAjyE{[[[AyAAL_[[[[{Q9",
"4Q{[[[[[{{{{{{{{{{{{{{{{{{{{{{{{{{{{{{{{{{[[[[[{Q>",
" R][[[[[[[[[[[[[[[[[[[[[[[[[[[[[[[[[[[[[[[[[[[[]T ",
" j([[[[[[[[[[[[[[[[[[[[[[[[[[[{{[[[[[[[[[[[[[[[(a ",
"  H(]{{{{{{{{{{{{{{{{{{{{{{{{{{{{{{{{{{{{{{{{](H  ",
"   jRQQQQQQQQQQQQQQ^QQQQQQQQQQQQQQQQQQQQQQQQQTj   ",
"     4w9999999999w9999ww9999w99999999999999w4     "
};
