/* XPM */
static char *_add492f74114735c783bd3a2a50a537goLMu6VuEsw5YHLw[] = {
/* columns rows colors chars-per-pixel */
"50 50 69 1 ",
"  c None",
". c #65D5E1",
"X c #66D5E1",
"o c #67D5E1",
"O c #66D5E2",
"+ c #67D5E2",
"@ c #68D5E1",
"# c #69D5E1",
"$ c #6AD5E1",
"% c #6BD6E1",
"& c #68D5E2",
"* c #69D5E2",
"= c #6AD6E2",
"- c #73D6E2",
"; c #73D7E2",
": c #72D6E3",
"> c #73D6E3",
", c #73D7E3",
"< c #75D7E2",
"1 c #74D7E3",
"2 c #76D8E3",
"3 c #9DDFE9",
"4 c #9DE0E9",
"5 c #9EE0E8",
"6 c #9EE0E9",
"7 c #9FE0E9",
"8 c #A0E0E9",
"9 c #A0E1E9",
"0 c #A1E1E9",
"q c #A4E2EA",
"w c #A5E2EA",
"e c #A6E2EA",
"r c #A7E2EA",
"t c #A8E2EA",
"y c #A9E3EA",
"u c #A8E2EB",
"i c #A9E2EB",
"p c #A8E3EB",
"a c #A9E3EB",
"s c #AAE3EA",
"d c #AAE3EB",
"f c #ABE3EB",
"g c #ABE4EB",
"h c #ACE4EB",
"j c #ADE4EB",
"k c #AFE5EC",
"l c #B0E5EC",
"z c #B1E5EC",
"x c #BEE9EF",
"c c #BFE9EF",
"v c #C1EAEF",
"b c #C2EAEF",
"n c #C2EAF0",
"m c #C3EAF0",
"M c #C3EBF0",
"N c #C4EBF0",
"B c #CDEEF2",
"V c #CEEEF2",
"C c #CFEEF2",
"Z c #D0EFF2",
"A c #D9F2F5",
"S c #DAF2F5",
"D c #DBF2F5",
"F c #DFF4F6",
"G c #E0F4F6",
"H c #E1F4F6",
"J c #E9F7F9",
"K c #EBF8F9",
"L c #ECF8F9",
/* pixels */
"     +>>>>>>>>>>>>>>>>>>>>>>>>>>>>>>>>>>>>>>+     ",
"   5MBBBBBBBBBBBBBBBBBBBBBBBBBBBBBBBBBBBBBBBBM5   ",
"  lSJLLLLLLLLLLLLLLLLLLLLLLLLLLLLLLLLLLLLLLLLJSk  ",
" 5SKKKKKKKKKKKKKKKKKKKKKKKKKKKKKKKKKKKKKKKKKKKKS3 ",
" MJKKKKKKKKKKKKKKKKKKKKKKKKKKKKKKKKKKKKKKKKKKKKJv ",
"*BLKKKKKLLLLLLLLLLLLLLLLLLLLLLLLLLLLLLLLLLKKKKKLB+",
">BLKKKKHvhffffffffffffffffffffffffffffffhvHKKKKLB>",
">BLKKKHr*                                *rHKKKLB>",
">BLKKLv*                                  *vLKKLB>",
">BLKKLh                                    fLKKLB>",
">BLKKLf                                    fLKKLB>",
">BLKKLg                                    fLKKLB>",
">BLKKLg                                    fLKKLB>",
">BLKKLg                                    fLKKLB>",
">BLKKLg                                    fLKKLB>",
">BLKKLg                                    fLKKLB>",
">BLKKLg                                    fLKKLB1",
">BLKKLg                                    fLKKLZ2",
">BLKKLg                                    fLKKLB1",
">BLKKLg                                    fLKKLB>",
">BLKKLg                                    fLKKLB>",
">BLKKLg                                    fLKKLZ>",
">BLKKLg                                    fLKKLB1",
">BLKKLg                                    fLKKLB>",
">BLKKLg                                    fLKKLB>",
">BLKKLg                                    fLKKLB>",
">BLKKLg                                    fLKKLB>",
">BLKKLg                                    fLKKLB>",
">BLKKLg                                    fLKKLB>",
">BLKKLg                                    fLKKLB>",
">BLKKLg                                    fLKKLB>",
">BLKKLg                                    fLKLLZ1",
">BLKKLg                                    fLKKLB>",
">BLKKLg                                    fLKKLB>",
">BLKKLg                                    fLKKLB>",
">BLKKLg                                    fLKKLB>",
">BLKKLg                                    fLKKLB>",
">BLKKLg                                    fLKKLB>",
">BLKKLg                                    fLKKLB>",
">BLKKLf                                    fLKKLB>",
">BLKKLh                                    fLKKLB>",
">BLKKLv*                                  +cLKKLB>",
">BLKKKHr+                                +rHKKKLB>",
">BLKKKKHcfffffffffffffffrrffffffrrfffffffcFKKKKLB>",
"*BLKKKKKLLLLLLLLLLLLLLLLLLLLLLLLLLLLLLLLLLKKKKKLB+",
" NJKKKKKKKKKKKKKKKKKKKKKKKKKKKKKKKKKKKKKKKKKKKKJM ",
" 8SKKKKKKKKKKKKKKKKKKKKKKKKKKKLKKKKKKKKKKKKKKKKS5 ",
"  lSJLLLLLLLLLLKLLLLLLLLLLLLLLLLLLLLLLLLLLLLLJSl  ",
"   8NBBBBBBBBBBBBBBZBBBBBBBBBBBBBBBBBBBBBBBBBM8   ",
"     *1>>>>>>>>>11>>>>>1>>>>1>>>>>>>>>>>>>>1*     "
};
