/* XPM */
static char *_88cb7d730564e1581747941601fc7edjT5ytIQuEqCLQE6h[] = {
/* columns rows colors chars-per-pixel */
"25 25 21 1 ",
"  c None",
". c #53D2E0",
"X c #56D2E0",
"o c #59D3E0",
"O c #5BD3E0",
"+ c #CBEDF1",
"@ c #CCEDF2",
"# c #CDEEF2",
"$ c #D3EFF3",
"% c #D3F0F3",
"& c #D5F0F4",
"* c #E3F5F7",
"= c #E4F5F7",
"- c #E5F6F7",
"; c #E5F6F8",
": c #E6F6F8",
"> c #E7F7F8",
", c #E8F7F8",
"< c #E9F7F9",
"1 c #EAF7F9",
"2 c #EBF8F9",
/* pixels */
" @-:::::::::::::::::::-@ ",
"@22222222222222222222222+",
":22-&&&&&&&&&&&&&&&&&-22-",
",2-O                 O-2,",
",2&                   %2,",
",2&                   $2,",
",2&                   $2,",
",2&                   %2,",
",2&                   %2,",
",2&                   %2,",
",2&                   %2,",
",2&                   %2,",
",2&                   %2,",
",2&                   %2,",
",2&                   %2,",
",2&                   %2,",
",2&                   %2,",
",2&                   %2,",
",2&                   $2,",
",2&                   $2,",
",2&                   %2,",
",2-X                 .*2,",
":22*$$$$$$$$$$$$$$$$$*22:",
"@22222222222222222222222@",
" @:::::::::::::::::::::@ "
};
